<svg xmlns="http://www.w3.org/2000/svg" width="24.967" height="46.561" viewBox="0 0 24.967 46.561">
  <g id="Gruppe_1236" data-name="Gruppe 1236" transform="translate(1 1)">
    <path id="Pfad_4963" data-name="Pfad 4963" d="M1500.265,97.092c0-1.729-5.141-3.131-11.484-3.131s-11.484,1.4-11.484,3.131c0,1.413,3.05,38.183,3.05,39.13,0,1.27,3.776,2.3,8.434,2.3s8.434-1.03,8.434-2.3C1497.215,135.241,1500.265,98.538,1500.265,97.092Z" transform="translate(-1477.298 -93.961)" fill="#fff"/>
    <path id="Pfad_4962" data-name="Pfad 4962" d="M1511.294,146.668s7.19-10.09,7.19-38.631l5.367-1.2.971-1.6-3.05,39.13s-1.614,2.3-6.046,2.3Z" transform="translate(-1501.855 -102.107)" fill="#cbe8f3"/>
    <path id="Pfad_4961" data-name="Pfad 4961" d="M1500.265,97.092c0-1.729-5.141-3.131-11.484-3.131s-11.484,1.4-11.484,3.131c0,1.413,3.05,38.183,3.05,39.13,0,1.27,3.776,2.3,8.434,2.3s8.434-1.03,8.434-2.3C1497.215,135.241,1500.265,98.538,1500.265,97.092Z" transform="translate(-1477.298 -93.961)" fill="none" stroke="#000" stroke-linecap="round" stroke-linejoin="round" stroke-width="2"/>
    <ellipse id="Ellipse_124" data-name="Ellipse 124" cx="8.434" cy="2.3" rx="8.434" ry="2.3" transform="translate(3.05 39.962)" fill="none" stroke="#101010" stroke-linecap="round" stroke-linejoin="round" stroke-width="1"/>
    <ellipse id="Ellipse_125" data-name="Ellipse 125" cx="11.484" cy="3.131" rx="11.484" ry="3.131" transform="translate(0 0)" fill="none" stroke="#000" stroke-linecap="round" stroke-linejoin="round" stroke-width="1"/>
    <g id="Gruppe_718" data-name="Gruppe 718" transform="translate(5.941 16.44)">
      <g id="Gruppe_13" data-name="Gruppe 13">
        <path id="Pfad_13" data-name="Pfad 13" d="M-16.515-67.533c.026.026.043.046.062.063a3.827,3.827,0,0,0,1,.639,5,5,0,0,0,2.008.409,5.594,5.594,0,0,0,.815-.056,5.622,5.622,0,0,0,1.4-.379,4.623,4.623,0,0,0,1.4-.9,3.558,3.558,0,0,0,.974-1.52,4.212,4.212,0,0,0,.179-1.519,4.331,4.331,0,0,0-.193-1.076A5.1,5.1,0,0,0-10.2-73.992a7.529,7.529,0,0,0-2.1-1.436,10.225,10.225,0,0,0-2.23-.741.131.131,0,0,0-.082-.009.27.27,0,0,0,0,.027,1.3,1.3,0,0,1,.007.736.111.111,0,0,0-.006.051c.009.066.016.133.024.2.032.256.056.512.075.768.012.165.027.328.033.492a3.915,3.915,0,0,1,0,.6.1.1,0,0,0,0,.038c.03.1.01.141-.088.181-.132.055-.263.11-.391.173a1.772,1.772,0,0,0-.5.343,2.48,2.48,0,0,0-.245.293.156.156,0,0,1-.1.066.269.269,0,0,1-.287-.224.355.355,0,0,1,.04-.2,1.16,1.16,0,0,1,.21-.279c.076-.078.156-.15.237-.223a.644.644,0,0,0,.137-.225.109.109,0,0,0-.069.021.861.861,0,0,1-.166.088c-.071.033-.141.067-.212.1a.47.47,0,0,0-.278.36c-.008.042-.021.084-.033.125a.144.144,0,0,1-.078.091.251.251,0,0,1-.226.035.191.191,0,0,0,.056.121.108.108,0,0,1,.027.108,1.73,1.73,0,0,1-.067.217c-.026.069-.053.137-.073.208a.268.268,0,0,0,0,.147c.012.046.026.092.038.138a.467.467,0,0,1-.061.374.129.129,0,0,1-.2.03c-.026-.023-.049-.049-.076-.071a.15.15,0,0,0-.1-.043.2.2,0,0,1-.115.2c-.047.031-.094.063-.142.091-.118.068-.238.134-.357.2a.084.084,0,0,0-.051.073,3.782,3.782,0,0,0,0,.655c.007.1.015.19.031.284,0,.026.014.037.041.038a1.179,1.179,0,0,0,.3-.02c.083-.019.1-.039.107-.123a.14.14,0,0,1,.158-.142,1.137,1.137,0,0,1,.136.011.69.69,0,0,1,.244.06.109.109,0,0,0,.113,0c.019-.01.039-.018.058-.029a4.834,4.834,0,0,0,.487-.3,2.474,2.474,0,0,1,.593-.3.858.858,0,0,1,.317-.059.309.309,0,0,1,.3.212.516.516,0,0,1,.029.132c.006.078.008.156.008.234a.229.229,0,0,0,.139.229.677.677,0,0,1,.235.2,2.533,2.533,0,0,1,.24.37.333.333,0,0,1,.015.294c-.024.065-.059.125-.089.188-.053.109-.063.088.013.2a2.6,2.6,0,0,0,.234.287.839.839,0,0,1,.146.229.242.242,0,0,1,.031.118c-.008.064.028.085.077.1l.044.012a.146.146,0,0,1,.1.218c-.008.018-.028.034-.023.061l.087.018a.178.178,0,0,1,.162.194.192.192,0,0,0,.006.08.6.6,0,0,1,.239-.024l.382.024a.245.245,0,0,0,.12-.02.264.264,0,0,1,.138-.032.1.1,0,0,1,.084.14.174.174,0,0,1-.055.071.7.7,0,0,1-.121.075,1.941,1.941,0,0,1-.479.158.888.888,0,0,1-.529-.034.857.857,0,0,0-.188-.048c-.163-.023-.328-.021-.492-.037a1.986,1.986,0,0,1-.494-.1c-.279-.1-.553-.215-.824-.334-.19-.084-.379-.171-.564-.265-.048-.024-.049-.023-.072.023a.251.251,0,0,1-.16.132.756.756,0,0,1-.184.024m.992-9.654a.35.35,0,0,0,.132.023,10.784,10.784,0,0,1,2.452.574,9.556,9.556,0,0,1,2.548,1.367A7.238,7.238,0,0,1-8.7-73.455a5.46,5.46,0,0,1,.8,1.875,5.024,5.024,0,0,1,.1.732,4.8,4.8,0,0,1,0,.707,4.407,4.407,0,0,1-1.055,2.582,5.3,5.3,0,0,1-1.649,1.275,6.739,6.739,0,0,1-1.878.624,7.041,7.041,0,0,1-1.493.111A6.281,6.281,0,0,1-16.075-66a4.682,4.682,0,0,1-1.616-1.075,4.177,4.177,0,0,1-1.079-2.032,4.176,4.176,0,0,1-.1-1.115,4.228,4.228,0,0,1,.327-1.429,6.177,6.177,0,0,1,.822-1.379,13.06,13.06,0,0,1,.918-1.051c.276-.29.559-.574.826-.873a4.241,4.241,0,0,0,.351-.442c.041-.062.077-.125.112-.19a.687.687,0,0,0,.066-.484,1.871,1.871,0,0,0-.321-.71.313.313,0,0,1-.055-.1.23.23,0,0,1,.128-.28c.015-.007.035-.006.045-.023Z" transform="translate(18.876 77.187)" fill="#008fc3"/>
      </g>
      <g id="Gruppe_25" data-name="Gruppe 25" transform="translate(4.889 2.428)">
        <path id="Pfad_25" data-name="Pfad 25" d="M-23.422-19.775a.529.529,0,0,0,.051.024,1.329,1.329,0,0,1,.471.292,1.475,1.475,0,0,0,.37.249,1.236,1.236,0,0,1,.26.158c.035.03.043.027.082-.006a.228.228,0,0,1,.042-.031.084.084,0,0,1,.118.034.218.218,0,0,1,.026.073,3.437,3.437,0,0,1,.067,1.039,3.559,3.559,0,0,1-.353,1.294,3.141,3.141,0,0,1-.856,1.072.231.231,0,0,1-.161.055c-.033,0-.065,0-.1-.006a.085.085,0,0,1-.083-.078.8.8,0,0,0-.1-.3c-.021-.043-.04-.087-.06-.129a.11.11,0,0,1,.018-.127.48.48,0,0,0,.054-.081.249.249,0,0,0,0-.248.627.627,0,0,0-.1-.135,2.176,2.176,0,0,0-.24-.208.131.131,0,0,1-.056-.133c.023-.177-.051-.254-.229-.254a1.084,1.084,0,0,0-.349.067,1.5,1.5,0,0,0-.412.2.26.26,0,0,1-.1.042c-.2.037-.4.073-.6.113a.415.415,0,0,1-.24-.019,5.127,5.127,0,0,1-.54-.254.127.127,0,0,1-.071-.095.255.255,0,0,0-.027-.079.1.1,0,0,0-.073-.057c-.065-.011-.087-.039-.084-.1a2.456,2.456,0,0,0-.045-.49,1.177,1.177,0,0,1-.023-.368.468.468,0,0,1,.167-.3,1.4,1.4,0,0,1,.121-.088.193.193,0,0,0,.091-.163c0-.058.007-.116.014-.174a.272.272,0,0,1,.136-.222c.285-.173.58-.328.878-.476.068-.034.137-.065.206-.1a.38.38,0,0,1,.074-.025.089.089,0,0,1,.121.093.344.344,0,0,0,.01.1.064.064,0,0,0,.066.05.731.731,0,0,0,.225-.028.276.276,0,0,1,.2.009.375.375,0,0,0,.107.024.2.2,0,0,0,.232-.145.442.442,0,0,0,.012-.05.107.107,0,0,1,.118-.1.909.909,0,0,0,.268-.041.407.407,0,0,0,.227-.165.266.266,0,0,0,.033-.236.163.163,0,0,0-.24-.1.43.43,0,0,0-.108.082.124.124,0,0,1-.165.026c-.062-.031-.123-.065-.183-.1a.125.125,0,0,0-.042-.018.06.06,0,0,0-.06.016c-.012.017,0,.034.011.048a.893.893,0,0,0,.052.082.087.087,0,0,1,.012.1.1.1,0,0,1-.1.039.19.19,0,0,1-.084-.034c-.134-.083-.267-.169-.407-.242a1.247,1.247,0,0,0-.35-.134.186.186,0,0,0-.09,0c-.025.008-.038.021-.022.048a.073.073,0,0,1,.009.017.121.121,0,0,1-.113.173.165.165,0,0,1-.093-.023.067.067,0,0,0-.072,0,.486.486,0,0,0-.285.34c-.021.1-.049.193-.073.289a.131.131,0,0,1-.1.1c-.142.037-.284.075-.427.11a.119.119,0,0,1-.159-.083.566.566,0,0,1-.025-.332.122.122,0,0,1,.121-.09L-26.21-20c.1-.012.109-.018.1-.12,0-.013,0-.026,0-.039,0-.078-.056-.112-.122-.13-.038-.011-.08-.016-.09-.062s.024-.071.055-.1a.508.508,0,0,0,.111-.109.287.287,0,0,0,.062-.181.116.116,0,0,1,.057-.109.463.463,0,0,0,.09-.074.046.046,0,0,0,0-.068c-.047-.06-.044-.085.007-.14.013-.014.027-.027.04-.043s.012-.05-.023-.054a.326.326,0,0,0-.1.007.653.653,0,0,1-.168.008.265.265,0,0,1-.134-.045.078.078,0,0,1-.011-.138c.02-.019.043-.037.062-.057.036-.038.038-.045.007-.089a.234.234,0,0,1,0-.274.15.15,0,0,1,.108-.075l.353-.049a.9.9,0,0,0,.108-.024.1.1,0,0,0,.079-.09,2.246,2.246,0,0,1,.1-.382.582.582,0,0,1,.065-.134.069.069,0,0,1,.077-.032,4.494,4.494,0,0,1,1.735.71,4.514,4.514,0,0,1,.838.82c.11.135.215.272.316.413a.094.094,0,0,1-.017.151l-.065.055a.145.145,0,0,1-.168.023c-.023-.01-.051-.038-.07-.018s.009.051.021.073a.406.406,0,0,0,.191.169c.038.018.053.014.07-.026a.113.113,0,0,1,.188-.037.529.529,0,0,1,.185.346,1.568,1.568,0,0,1-.032.5.618.618,0,0,1-.019.088.1.1,0,0,1-.159.05.355.355,0,0,1-.046-.045,3.345,3.345,0,0,0-.45-.4,1.083,1.083,0,0,0-.248-.141.182.182,0,0,0-.19.014c-.038.028-.082.048-.132.078" transform="translate(26.77 22.601)" fill="#008fc3"/>
      </g>
    </g>
  </g>
</svg>
