<svg xmlns="http://www.w3.org/2000/svg" width="24.967" height="46.561" viewBox="0 0 24.967 46.561">
  <g id="Gruppe_1231" data-name="Gruppe 1231" transform="translate(-837 -2909.926)">
    <path id="Pfad_4963" data-name="Pfad 4963" d="M1500.265,97.092c0-1.729-5.141-3.131-11.484-3.131s-11.484,1.4-11.484,3.131c0,1.413,3.05,38.183,3.05,39.13,0,1.27,3.776,2.3,8.434,2.3s8.434-1.03,8.434-2.3C1497.215,135.241,1500.265,98.538,1500.265,97.092Z" transform="translate(-639.298 2816.965)" fill="#fff"/>
    <path id="Pfad_5150" data-name="Pfad 5150" d="M-116,3084.514l2.4,29.653s7.083,1.654,10.374,1.536,6.388-2.823,6.388-2.823l2.489-28.365Z" transform="translate(955 -160)" fill="#03bcff" opacity="0.535"/>
    <path id="Pfad_4962" data-name="Pfad 4962" d="M1511.294,146.668s7.19-1.09,7.19-29.631l5.367-1.2.971-10.6-3.05,39.13s-1.614,2.3-6.046,2.3Z" transform="translate(-663.855 2808.819)" fill="#0bf"/>
    <path id="Pfad_4961" data-name="Pfad 4961" d="M1500.265,97.092c0-1.729-5.141-3.131-11.484-3.131s-11.484,1.4-11.484,3.131c0,1.413,3.05,38.183,3.05,39.13,0,1.27,3.776,2.3,8.434,2.3s8.434-1.03,8.434-2.3C1497.215,135.241,1500.265,98.538,1500.265,97.092Z" transform="translate(-639.298 2816.965)" fill="none" stroke="#000" stroke-linecap="round" stroke-linejoin="round" stroke-width="2"/>
    <ellipse id="Ellipse_124" data-name="Ellipse 124" cx="8.434" cy="2.3" rx="8.434" ry="2.3" transform="translate(841.05 2950.887)" fill="none" stroke="#101010" stroke-linecap="round" stroke-linejoin="round" stroke-width="1"/>
    <ellipse id="Ellipse_125" data-name="Ellipse 125" cx="11.484" cy="3.131" rx="11.484" ry="3.131" transform="translate(838 2910.926)" fill="none" stroke="#000" stroke-linecap="round" stroke-linejoin="round" stroke-width="1"/>
    <ellipse id="Ellipse_364" data-name="Ellipse 364" cx="10.484" cy="2.631" rx="10.484" ry="2.631" transform="translate(839 2920.926)" fill="#0bf" stroke="#000" stroke-linecap="round" stroke-linejoin="round" stroke-width="1"/>
  </g>
</svg>
